<svg width="31" height="35" viewBox="0 0 31 35" fill="none" xmlns="http://www.w3.org/2000/svg">
    <g clip-path="url(#clip0_793_8554)">
        <path
            d="M1.22899 11.049L1.23817 6.46261L6.61272 8.35275L6.60355 12.1701C8.12604 11.3547 11.4645 10.7988 15.3349 10.7988C19.2145 10.8081 22.5621 11.3733 24.0754 12.2071L24.0846 8.6863L30.5231 6.45334C30.8166 6.35142 31 6.10126 31 5.7955C31 5.48974 30.8166 5.23958 30.5231 5.13766L16.0136 0.0416942C15.8485 -0.0138981 15.7018 -0.0138981 15.5367 0.0416942L1.00888 5.06353C0.715385 5.16545 0.531953 5.42488 0.531953 5.72138L0.522781 11.049C0.210947 11.188 0 11.4752 0 11.8365V13.4487H1.76095V11.8365C1.75178 11.4844 1.54083 11.188 1.22899 11.049Z"
            fill="#29304C" />
        <path
            d="M18.2973 15.3389H19.0036C21.4065 15.3481 22.9107 16.1913 23.4518 18.6837C23.8003 18.6837 24.2497 18.6559 24.5432 18.5262C24.3231 17.0344 24.1672 15.3852 24.1397 13.9305C24.1397 13.9027 24.0755 13.8286 24.0479 13.8286C22.9565 13.9213 19.3979 14.0788 16.8757 14.0695L14.1243 14.0602C11.6571 14.051 7.87841 13.8842 6.65859 13.7823C6.59438 13.7823 6.53018 13.8471 6.53018 13.8749C6.40178 15.3296 6.0716 17.0159 5.72308 18.5632C6.04409 18.6929 6.4293 18.73 6.8145 18.73C7.45652 16.145 8.93314 15.3018 11.0518 15.3111H12.6201C13.8033 15.3111 14.1243 16.5434 14.1151 18.5169L14.0876 30.9788C14.0784 33.6658 13.5373 33.8233 10.9692 33.916C10.7766 34.1105 10.7766 34.7869 10.9692 34.9815C12.5376 34.9537 14.1701 34.9259 15.4541 34.9259C16.7382 34.9259 18.3065 34.963 19.9115 35C20.1041 34.8054 20.1041 34.1291 19.9115 33.9345C17.3527 33.8326 16.8024 33.6658 16.8115 30.9788L16.8391 18.6188C16.8207 16.5619 17.1417 15.3389 18.2973 15.3389Z"
            fill="#29304C" />
    </g>
    <defs>
        <clipPath id="clip0_793_8554">
            <rect width="31" height="35" fill="white" />
        </clipPath>
    </defs>
</svg>